<?xml version="1.0" encoding="UTF-8" standalone="no"?>
<!-- Created with Inkscape (http://www.inkscape.org/) -->
<svg
   xmlns:dc="http://purl.org/dc/elements/1.1/"
   xmlns:cc="http://web.resource.org/cc/"
   xmlns:rdf="http://www.w3.org/1999/02/22-rdf-syntax-ns#"
   xmlns:svg="http://www.w3.org/2000/svg"
   xmlns="http://www.w3.org/2000/svg"
   xmlns:sodipodi="http://sodipodi.sourceforge.net/DTD/sodipodi-0.dtd"
   xmlns:inkscape="http://www.inkscape.org/namespaces/inkscape"
   height="649.29431"
   id="svg1"
   inkscape:version="0.45.1"
   sodipodi:docbase="/home/tobias/Desktop/Tobias Jakobs"
   sodipodi:docname="bike_tobias_jakobs_.svg"
   sodipodi:version="0.32"
   width="766.14136"
   inkscape:output_extension="org.inkscape.output.svg.inkscape"
   version="1.0">
  <metadata
     id="metadata3">
    <rdf:RDF>
      <cc:Work
         rdf:about="">
        <dc:title>bike</dc:title>
        <dc:description />
        <dc:subject>
          <rdf:Bag>
            <rdf:li>bicycle</rdf:li>
            <rdf:li>transport</rdf:li>
            <rdf:li>bike</rdf:li>
          </rdf:Bag>
        </dc:subject>
        <dc:publisher>
          <cc:Agent
             rdf:about="http://www.openclipart.org">
            <dc:title>Open Clip Art Library</dc:title>
          </cc:Agent>
        </dc:publisher>
        <dc:creator>
          <cc:Agent>
            <dc:title>Tobias Jakobs</dc:title>
          </cc:Agent>
        </dc:creator>
        <dc:rights>
          <cc:Agent>
            <dc:title>Tobias Jakobs</dc:title>
          </cc:Agent>
        </dc:rights>
        <dc:date />
        <dc:format>image/svg+xml</dc:format>
        <dc:type
           rdf:resource="http://purl.org/dc/dcmitype/StillImage" />
        <cc:license
           rdf:resource="http://web.resource.org/cc/PublicDomain" />
        <dc:language>en</dc:language>
      </cc:Work>
      <cc:License
         rdf:about="http://web.resource.org/cc/PublicDomain">
        <cc:permits
           rdf:resource="http://web.resource.org/cc/Reproduction" />
        <cc:permits
           rdf:resource="http://web.resource.org/cc/Distribution" />
        <cc:permits
           rdf:resource="http://web.resource.org/cc/DerivativeWorks" />
      </cc:License>
    </rdf:RDF>
  </metadata>
  <defs
     id="defs4" />
  <sodipodi:namedview
     bordercolor="#666666"
     borderopacity="1.0"
     id="base"
     inkscape:current-layer="svg1"
     inkscape:cx="197.50000"
     inkscape:cy="409.32574"
     inkscape:pageopacity="0.0"
     inkscape:pageshadow="2"
     inkscape:window-height="1126"
     inkscape:window-width="1600"
     inkscape:window-x="0"
     inkscape:window-y="26"
     inkscape:zoom="1.0000000"
     pagecolor="#ffffff" />
  <g
     id="g2648"
     transform="translate(31.75552,-148.19912)">
    <path
       d="M 192.80858,279.7205 L 249.10306,554.15607"
       id="path1061"
       style="fill:none;fill-opacity:0.75;fill-rule:evenodd;stroke:#000000;stroke-width:1.25;stroke-linecap:butt;stroke-linejoin:miter;stroke-miterlimit:4;stroke-opacity:1" />
    <path
       d="M 139.32883,295.20148 L 249.10306,554.85975"
       id="path1062"
       style="fill:none;fill-opacity:0.75;fill-rule:evenodd;stroke:#000000;stroke-width:1.25;stroke-linecap:butt;stroke-linejoin:miter;stroke-miterlimit:4;stroke-opacity:1" />
    <path
       d="M 88.663799,319.12663 L 254.7325,556.26711"
       id="path1063"
       style="fill:none;fill-opacity:0.75;fill-rule:evenodd;stroke:#000000;stroke-width:1.25;stroke-linecap:butt;stroke-linejoin:miter;stroke-miterlimit:4;stroke-opacity:1" />
    <path
       d="M 44.3319,352.19964 L 254.02882,555.56343"
       id="path1064"
       style="fill:none;fill-opacity:0.75;fill-rule:evenodd;stroke:#000000;stroke-width:1.25;stroke-linecap:butt;stroke-linejoin:miter;stroke-miterlimit:4;stroke-opacity:1" />
    <path
       d="M 13.369938,394.4205 L 254.7325,549.2303"
       id="path1065"
       style="fill:none;fill-opacity:0.75;fill-rule:evenodd;stroke:#000000;stroke-width:1.25;stroke-linecap:butt;stroke-linejoin:miter;stroke-miterlimit:4;stroke-opacity:1" />
    <path
       d="M -8.4441714,439.45608 L 251.91778,557.67448"
       id="path1066"
       style="fill:none;fill-opacity:0.75;fill-rule:evenodd;stroke:#000000;stroke-width:1.25;stroke-linecap:butt;stroke-linejoin:miter;stroke-miterlimit:4;stroke-opacity:1" />
    <path
       d="M -25.332514,490.12111 L 251.91778,543.60086"
       id="path1067"
       style="fill:none;fill-opacity:0.75;fill-rule:evenodd;stroke:#000000;stroke-width:1.25;stroke-linecap:butt;stroke-linejoin:miter;stroke-miterlimit:4;stroke-opacity:1" />
    <path
       d="M -26.036195,540.08245 L 244.88097,553.45239"
       id="path1068"
       style="fill:none;fill-opacity:0.75;fill-rule:evenodd;stroke:#000000;stroke-width:1.25;stroke-linecap:butt;stroke-linejoin:miter;stroke-miterlimit:4;stroke-opacity:1" />
    <path
       d="M -0.70368095,637.8941 L 249.80674,552.74871"
       id="path1069"
       style="fill:none;fill-opacity:0.75;fill-rule:evenodd;stroke:#000000;stroke-width:1.25;stroke-linecap:butt;stroke-linejoin:miter;stroke-miterlimit:4;stroke-opacity:1" />
    <path
       d="M 26.739876,678.7076 L 251.91778,542.89718"
       id="path1070"
       style="fill:none;fill-opacity:0.75;fill-rule:evenodd;stroke:#000000;stroke-width:1.25;stroke-linecap:butt;stroke-linejoin:miter;stroke-miterlimit:4;stroke-opacity:1" />
    <path
       d="M 61.923923,717.41005 L 252.62146,548.52662"
       id="path1071"
       style="fill:none;fill-opacity:0.75;fill-rule:evenodd;stroke:#000000;stroke-width:1.25;stroke-linecap:butt;stroke-linejoin:miter;stroke-miterlimit:4;stroke-opacity:1" />
    <path
       d="M 102.03374,749.07569 L 250.51042,546.41558"
       id="path1072"
       style="fill:none;fill-opacity:0.75;fill-rule:evenodd;stroke:#000000;stroke-width:1.25;stroke-linecap:butt;stroke-linejoin:miter;stroke-miterlimit:4;stroke-opacity:1" />
    <path
       d="M 147.06932,770.8898 L 249.80674,546.41558"
       id="path1073"
       style="fill:none;fill-opacity:0.75;fill-rule:evenodd;stroke:#000000;stroke-width:1.25;stroke-linecap:butt;stroke-linejoin:miter;stroke-miterlimit:4;stroke-opacity:1" />
    <path
       d="M 193.51226,787.77815 L 251.91778,545.00822"
       id="path1074"
       style="fill:none;fill-opacity:0.75;fill-rule:evenodd;stroke:#000000;stroke-width:1.25;stroke-linecap:butt;stroke-linejoin:miter;stroke-miterlimit:4;stroke-opacity:1" />
    <path
       d="M 297.65704,790.59287 L 253.32514,542.1935"
       id="path1075"
       style="fill:none;fill-opacity:0.75;fill-rule:evenodd;stroke:#000000;stroke-width:1.25;stroke-linecap:butt;stroke-linejoin:miter;stroke-miterlimit:4;stroke-opacity:1" />
    <path
       d="M 345.50735,777.22293 L 242.06625,551.34135"
       id="path1076"
       style="fill:none;fill-opacity:0.75;fill-rule:evenodd;stroke:#000000;stroke-width:1.25;stroke-linecap:butt;stroke-linejoin:miter;stroke-miterlimit:4;stroke-opacity:1" />
    <path
       d="M 391.24661,757.51987 L 256.84355,548.52662"
       id="path1077"
       style="fill:none;fill-opacity:0.75;fill-rule:evenodd;stroke:#000000;stroke-width:1.25;stroke-linecap:butt;stroke-linejoin:miter;stroke-miterlimit:4;stroke-opacity:1" />
    <path
       d="M 432.0601,727.96527 L 239.9552,551.34135"
       id="path1078"
       style="fill:none;fill-opacity:0.75;fill-rule:evenodd;stroke:#000000;stroke-width:1.25;stroke-linecap:butt;stroke-linejoin:miter;stroke-miterlimit:4;stroke-opacity:1" />
    <path
       d="M 465.83679,691.37386 L 246.99201,538.67509"
       id="path1079"
       style="fill:none;fill-opacity:0.75;fill-rule:evenodd;stroke:#000000;stroke-width:1.25;stroke-linecap:butt;stroke-linejoin:miter;stroke-miterlimit:4;stroke-opacity:1" />
    <path
       d="M 491.87298,650.56036 L 246.28833,557.67448"
       id="path1080"
       style="fill:none;fill-opacity:0.75;fill-rule:evenodd;stroke:#000000;stroke-width:1.25;stroke-linecap:butt;stroke-linejoin:miter;stroke-miterlimit:4;stroke-opacity:1" />
    <path
       d="M 510.16869,604.11742 L 249.10306,537.97141"
       id="path1081"
       style="fill:none;fill-opacity:0.75;fill-rule:evenodd;stroke:#000000;stroke-width:1.25;stroke-linecap:butt;stroke-linejoin:miter;stroke-miterlimit:4;stroke-opacity:1" />
    <path
       d="M 519.31654,554.85975 L 245.58465,556.9708"
       id="path1082"
       style="fill:none;fill-opacity:0.75;fill-rule:evenodd;stroke:#000000;stroke-width:1.25;stroke-linecap:butt;stroke-linejoin:miter;stroke-miterlimit:4;stroke-opacity:1" />
    <path
       d="M 517.2055,501.38 L 247.69569,538.67509"
       id="path1083"
       style="fill:none;fill-opacity:0.75;fill-rule:evenodd;stroke:#000000;stroke-width:1.25;stroke-linecap:butt;stroke-linejoin:miter;stroke-miterlimit:4;stroke-opacity:1" />
    <path
       d="M 503.13188,450.01129 L 246.99201,557.67448"
       id="path1084"
       style="fill:none;fill-opacity:0.75;fill-rule:evenodd;stroke:#000000;stroke-width:1.25;stroke-linecap:butt;stroke-linejoin:miter;stroke-miterlimit:4;stroke-opacity:1" />
    <path
       d="M 483.42881,405.67939 L 248.39937,541.48981"
       id="path1085"
       style="fill:none;fill-opacity:0.75;fill-rule:evenodd;stroke:#000000;stroke-width:1.25;stroke-linecap:butt;stroke-linejoin:miter;stroke-miterlimit:4;stroke-opacity:1" />
    <path
       d="M 448.24476,363.45853 L 258.25091,549.2303"
       id="path1086"
       style="fill:none;fill-opacity:0.75;fill-rule:evenodd;stroke:#000000;stroke-width:1.25;stroke-linecap:butt;stroke-linejoin:miter;stroke-miterlimit:4;stroke-opacity:1" />
    <path
       d="M 408.83863,326.86713 L 248.39937,538.67509"
       id="path1087"
       style="fill:none;fill-opacity:0.75;fill-rule:evenodd;stroke:#000000;stroke-width:1.25;stroke-linecap:butt;stroke-linejoin:miter;stroke-miterlimit:4;stroke-opacity:1" />
    <path
       d="M 363.09937,298.71989 L 248.39937,552.04503"
       id="path1088"
       style="fill:none;fill-opacity:0.75;fill-rule:evenodd;stroke:#000000;stroke-width:1.25;stroke-linecap:butt;stroke-linejoin:miter;stroke-miterlimit:4;stroke-opacity:1" />
    <path
       d="M 308.91594,281.12786 L 249.10306,550.63767"
       id="path1089"
       style="fill:none;fill-opacity:0.75;fill-rule:evenodd;stroke:#000000;stroke-width:1.25;stroke-linecap:butt;stroke-linejoin:miter;stroke-miterlimit:4;stroke-opacity:1" />
    <path
       d="M 633.31285,590.74748 L 626.97972,688.55913"
       id="path1090"
       style="fill:none;fill-opacity:0.75;fill-rule:evenodd;stroke:#000000;stroke-width:1.25;stroke-linecap:butt;stroke-linejoin:miter;stroke-miterlimit:4;stroke-opacity:1" />
    <path
       d="M 676.23739,601.3027 L 633.31285,700.52171"
       id="path1091"
       style="fill:none;fill-opacity:0.75;fill-rule:evenodd;stroke:#000000;stroke-width:1.25;stroke-linecap:butt;stroke-linejoin:miter;stroke-miterlimit:4;stroke-opacity:1" />
    <path
       d="M 712.12512,628.04257 L 626.97972,687.15177"
       id="path1092"
       style="fill:none;fill-opacity:0.75;fill-rule:evenodd;stroke:#000000;stroke-width:1.25;stroke-linecap:butt;stroke-linejoin:miter;stroke-miterlimit:4;stroke-opacity:1" />
    <path
       d="M 728.30978,669.55975 L 638.23862,694.89226"
       id="path1093"
       style="fill:none;fill-opacity:0.75;fill-rule:evenodd;stroke:#000000;stroke-width:1.25;stroke-linecap:butt;stroke-linejoin:miter;stroke-miterlimit:4;stroke-opacity:1" />
    <path
       d="M 726.90242,713.18797 L 629.09077,688.55913"
       id="path1094"
       style="fill:none;fill-opacity:0.75;fill-rule:evenodd;stroke:#000000;stroke-width:1.25;stroke-linecap:butt;stroke-linejoin:miter;stroke-miterlimit:4;stroke-opacity:1" />
    <path
       d="M 706.49567,754.70514 L 629.79445,692.07754"
       id="path1095"
       style="fill:none;fill-opacity:0.75;fill-rule:evenodd;stroke:#000000;stroke-width:1.25;stroke-linecap:butt;stroke-linejoin:miter;stroke-miterlimit:4;stroke-opacity:1" />
    <path
       d="M 670.60794,780.03766 C 669.20058,777.22293 629.09077,692.07754 629.09077,692.07754"
       id="path1096"
       style="fill:none;fill-opacity:0.75;fill-rule:evenodd;stroke:#000000;stroke-width:1.25;stroke-linecap:butt;stroke-linejoin:miter;stroke-miterlimit:4;stroke-opacity:1" />
    <path
       d="M 626.27604,792.70391 L 633.31285,694.89226"
       id="path1097"
       style="fill:none;fill-opacity:0.75;fill-rule:evenodd;stroke:#000000;stroke-width:1.25;stroke-linecap:butt;stroke-linejoin:miter;stroke-miterlimit:4;stroke-opacity:1" />
    <path
       d="M 584.05519,783.55606 L 628.38709,687.85545"
       id="path1098"
       style="fill:none;fill-opacity:0.75;fill-rule:evenodd;stroke:#000000;stroke-width:1.25;stroke-linecap:butt;stroke-linejoin:miter;stroke-miterlimit:4;stroke-opacity:1" />
    <path
       d="M 548.87114,758.22355 L 637.53494,693.4849"
       id="path1099"
       style="fill:none;fill-opacity:0.75;fill-rule:evenodd;stroke:#000000;stroke-width:1.25;stroke-linecap:butt;stroke-linejoin:miter;stroke-miterlimit:4;stroke-opacity:1" />
    <path
       d="M 528.46439,675.89288 L 637.53494,697.70698"
       id="path1100"
       style="fill:none;fill-opacity:0.75;fill-rule:evenodd;stroke:#000000;stroke-width:1.25;stroke-linecap:butt;stroke-linejoin:miter;stroke-miterlimit:4;stroke-opacity:1" />
    <path
       d="M 552.38954,634.3757 L 632.60917,696.29962"
       id="path1101"
       style="fill:none;fill-opacity:0.75;fill-rule:evenodd;stroke:#000000;stroke-width:1.25;stroke-linecap:butt;stroke-linejoin:miter;stroke-miterlimit:4;stroke-opacity:1" />
    <path
       d="M 253.32514,165.02051 L 247.69569,556.26711"
       id="path1726"
       style="fill:none;fill-opacity:0.75;fill-rule:evenodd;stroke:#000000;stroke-width:12.125;stroke-linecap:round;stroke-linejoin:miter;stroke-miterlimit:4;stroke-opacity:1"
       transform="translate(-1.25,0)" />
    <path
       d="M 246.28834 157.9837 A 4.2220855 4.2220855 0 1 1  237.84417,157.9837 A 4.2220855 4.2220855 0 1 1  246.28834 157.9837 z"
       id="path2366"
       sodipodi:cx="242.06625"
       sodipodi:cy="157.9837"
       sodipodi:rx="4.2220855"
       sodipodi:ry="4.2220855"
       sodipodi:type="arc"
       style="color:#000000;fill:#ff0000;fill-opacity:1;fill-rule:nonzero;stroke:#000000;stroke-width:11.125;stroke-linecap:round;stroke-linejoin:miter;marker:none;marker-start:none;marker-mid:none;marker-end:none;stroke-miterlimit:4;stroke-dashoffset:0;stroke-opacity:1;visibility:visible;display:block"
       transform="translate(389.9966,539.0196)" />
    <path
       d="M 263.17667 556.26709 A 18.295704 18.295704 0 1 1  226.58526,556.26709 A 18.295704 18.295704 0 1 1  263.17667 556.26709 z"
       id="path1732"
       sodipodi:cx="244.88097"
       sodipodi:cy="556.26709"
       sodipodi:rx="18.295704"
       sodipodi:ry="18.295704"
       sodipodi:type="arc"
       style="color:#000000;fill:#000000;fill-opacity:1;fill-rule:nonzero;stroke:#000000;stroke-width:6.25;stroke-linecap:round;stroke-linejoin:miter;marker:none;marker-start:none;marker-mid:none;marker-end:none;stroke-miterlimit:4;stroke-dashoffset:0;stroke-opacity:1;visibility:visible;display:block"
       transform="translate(-1.25,0)" />
    <path
       d="M 263.17667 556.26709 A 18.295704 18.295704 0 1 1  226.58526,556.26709 A 18.295704 18.295704 0 1 1  263.17667 556.26709 z"
       id="path1733"
       sodipodi:cx="244.88097"
       sodipodi:cy="556.26709"
       sodipodi:rx="18.295704"
       sodipodi:ry="18.295704"
       sodipodi:type="arc"
       style="color:#000000;fill:#000000;fill-opacity:1;fill-rule:nonzero;stroke:#000000;stroke-width:6.25;stroke-linecap:round;stroke-linejoin:miter;marker:none;marker-start:none;marker-mid:none;marker-end:none;stroke-miterlimit:4;stroke-dashoffset:0;stroke-opacity:1;visibility:visible;display:block"
       transform="translate(1.564727,-18.99936)" />
    <path
       d="M 246.28834 157.9837 A 4.2220855 4.2220855 0 1 1  237.84417,157.9837 A 4.2220855 4.2220855 0 1 1  246.28834 157.9837 z"
       id="path2367"
       sodipodi:cx="242.06625"
       sodipodi:cy="157.9837"
       sodipodi:rx="4.2220855"
       sodipodi:ry="4.2220855"
       sodipodi:type="arc"
       style="color:#000000;fill:#ff0000;fill-opacity:1;fill-rule:nonzero;stroke:#000000;stroke-width:11.125;stroke-linecap:round;stroke-linejoin:miter;marker:none;marker-start:none;marker-mid:none;marker-end:none;stroke-miterlimit:4;stroke-dashoffset:0;stroke-opacity:1;visibility:visible;display:block"
       transform="translate(382.9598,529.8718)" />
    <path
       d="M 731.12449 698.41064 A 94.996925 94.996925 0 1 1  541.13064,698.41064 A 94.996925 94.996925 0 1 1  731.12449 698.41064 z"
       id="path1102"
       sodipodi:cx="636.12756"
       sodipodi:cy="698.41064"
       sodipodi:rx="94.996925"
       sodipodi:ry="94.996925"
       sodipodi:type="arc"
       style="color:#000000;fill:none;fill-opacity:1;fill-rule:nonzero;stroke:#000000;stroke-width:5.86057901;stroke-linecap:butt;stroke-linejoin:miter;marker:none;marker-start:none;marker-mid:none;marker-end:none;stroke-miterlimit:0;stroke-dashoffset:0;stroke-opacity:1;visibility:visible;display:block"
       transform="matrix(1.066448,0,0,1.066447,-48.44541,-52.74023)" />
    <path
       d="M 731.12449 698.41064 A 94.996925 94.996925 0 1 1  541.13064,698.41064 A 94.996925 94.996925 0 1 1  731.12449 698.41064 z"
       id="path1724"
       sodipodi:cx="636.12756"
       sodipodi:cy="698.41064"
       sodipodi:rx="94.996925"
       sodipodi:ry="94.996925"
       sodipodi:type="arc"
       style="color:#000000;fill:none;fill-opacity:1;fill-rule:nonzero;stroke:#000000;stroke-width:4.43798399;stroke-linecap:butt;stroke-linejoin:miter;marker:none;marker-start:none;marker-mid:none;marker-end:none;stroke-miterlimit:0;stroke-dashoffset:0;stroke-opacity:1;visibility:visible;display:block"
       transform="matrix(2.852265,0,0,2.72602,-1569.016,-1371.539)" />
    <path
       d="M 240.65889,157.28002 L 266.69508,175.57572"
       id="path1725"
       style="fill:none;fill-opacity:0.75;fill-rule:evenodd;stroke:#000000;stroke-width:11.125;stroke-linecap:round;stroke-linejoin:miter;stroke-miterlimit:4;stroke-opacity:1"
       transform="translate(-1.25,0)" />
    <path
       d="M 246.28834 157.9837 A 4.2220855 4.2220855 0 1 1  237.84417,157.9837 A 4.2220855 4.2220855 0 1 1  246.28834 157.9837 z"
       id="path1734"
       sodipodi:cx="242.06625"
       sodipodi:cy="157.9837"
       sodipodi:rx="4.2220855"
       sodipodi:ry="4.2220855"
       sodipodi:type="arc"
       style="color:#000000;fill:#ff0000;fill-opacity:1;fill-rule:nonzero;stroke:#000000;stroke-width:11.125;stroke-linecap:round;stroke-linejoin:miter;marker:none;marker-start:none;marker-mid:none;marker-end:none;stroke-miterlimit:4;stroke-dashoffset:0;stroke-opacity:1;visibility:visible;display:block"
       transform="translate(-1.25,0)" />
    <path
       d="M 246.28834 157.9837 A 4.2220855 4.2220855 0 1 1  237.84417,157.9837 A 4.2220855 4.2220855 0 1 1  246.28834 157.9837 z"
       id="path1735"
       sodipodi:cx="242.06625"
       sodipodi:cy="157.9837"
       sodipodi:rx="4.2220855"
       sodipodi:ry="4.2220855"
       sodipodi:type="arc"
       style="color:#000000;fill:#ff0000;fill-opacity:1;fill-rule:nonzero;stroke:#000000;stroke-width:11.125;stroke-linecap:round;stroke-linejoin:miter;marker:none;marker-start:none;marker-mid:none;marker-end:none;stroke-miterlimit:4;stroke-dashoffset:0;stroke-opacity:1;visibility:visible;display:block"
       transform="translate(21.26774,16.88833)" />
    <path
       d="M 246.28834 157.9837 A 4.2220855 4.2220855 0 1 1  237.84417,157.9837 A 4.2220855 4.2220855 0 1 1  246.28834 157.9837 z"
       id="path1736"
       sodipodi:cx="242.06625"
       sodipodi:cy="157.9837"
       sodipodi:rx="4.2220855"
       sodipodi:ry="4.2220855"
       sodipodi:type="arc"
       style="color:#000000;fill:#ff0000;fill-opacity:1;fill-rule:nonzero;stroke:#000000;stroke-width:11.125;stroke-linecap:round;stroke-linejoin:miter;marker:none;marker-start:none;marker-mid:none;marker-end:none;stroke-miterlimit:4;stroke-dashoffset:0;stroke-opacity:1;visibility:visible;display:block"
       transform="translate(10.00889,40.10981)" />
    <path
       d="M 246.28834 157.9837 A 4.2220855 4.2220855 0 1 1  237.84417,157.9837 A 4.2220855 4.2220855 0 1 1  246.28834 157.9837 z"
       id="path1737"
       sodipodi:cx="242.06625"
       sodipodi:cy="157.9837"
       sodipodi:rx="4.2220855"
       sodipodi:ry="4.2220855"
       sodipodi:type="arc"
       style="color:#000000;fill:#ff0000;fill-opacity:1;fill-rule:nonzero;stroke:#000000;stroke-width:11.125;stroke-linecap:round;stroke-linejoin:miter;marker:none;marker-start:none;marker-mid:none;marker-end:none;stroke-miterlimit:4;stroke-dashoffset:0;stroke-opacity:1;visibility:visible;display:block"
       transform="translate(9.3052,88.66379)" />
    <path
       d="M 253.20638,207.82628 C 253.20638,207.82628 246.10425,205.51037 244.56031,208.75265 C 243.01636,211.99492 243.17076,223.88327 243.17076,223.88327 C 243.17076,223.88327 243.01636,231.29419 244.25152,232.52934 C 245.48667,233.76449 261.69805,235.46283 261.69805,235.46283 C 261.69805,235.46283 271.1161,234.53647 273.27761,236.08041 C 275.43913,237.62435 285.01157,247.81436 289.64339,250.74785 C 294.27522,253.68134 355.87847,276.06849 357.7312,277.61243 C 359.58393,279.15637 358.81196,282.24425 360.81909,283.47941 C 362.82621,284.71456 367.30364,281.62668 370.54592,282.70743 C 373.78819,283.78819 434.1563,317.44611 453.30117,339.52448 C 472.44604,361.60284 501.62653,395.87833 511.66215,422.58852 C 521.69777,449.2987 534.51249,483.72859 536.05643,490.36754 C 537.60037,497.00649 559.52433,574.20356 559.52433,574.20356 C 559.52433,574.20356 560.60509,575.90189 560.14191,576.98265 C 559.67873,578.06341 556.28206,579.14417 557.05403,581.46008 C 557.826,583.77599 562.45782,583.77599 562.45782,583.77599 C 562.45782,583.77599 566.47207,598.28904 566.47207,600.60495 C 566.47207,602.92086 567.55283,610.02299 568.63359,613.26527 C 569.71435,616.50755 576.04451,631.63817 582.22027,640.28424 C 588.39604,648.93032 593.64544,656.49563 598.12287,661.89942 C 602.6003,667.30322 618.96608,685.98491 618.96608,685.98491 L 627.61215,678.88278 C 627.61215,678.88278 615.26062,670.69989 607.54091,657.42199 C 599.8212,644.1441 584.99937,612.18451 583.91861,608.17026 C 582.83785,604.15602 560.60509,533.5979 557.20842,520.62879 C 553.81175,507.65968 535.59324,442.04218 523.5505,418.88306 C 511.50776,395.72394 492.36289,364.84511 478.62181,349.71449 C 464.88073,334.58386 422.42235,292.58866 401.42474,283.6338 C 380.42714,274.67894 369.92834,268.96636 367.92122,268.34878 C 365.91409,267.7312 364.52455,254.45331 369.00198,253.68134 C 373.47941,252.90937 400.96156,269.12075 411.15157,268.96636 C 421.34159,268.81196 423.96629,255.07088 423.96629,255.07088 C 423.96629,255.07088 425.35583,252.1374 426.1278,250.74785 C 426.89978,249.3583 448.20617,239.32268 447.43419,231.75737 C 446.66222,224.19206 431.22281,220.64099 427.51735,220.02342 C 423.81189,219.40584 360.3559,218.01629 357.7312,217.7075 C 355.1065,217.39872 345.07089,218.32508 343.52694,217.55311 C 341.983,216.78114 339.82148,213.07568 336.11603,213.23008 C 332.41057,213.38447 328.8595,216.00917 326.54359,219.40584 C 324.22768,222.80251 322.99252,226.19918 324.22768,227.89752 C 325.46283,229.59585 344.45331,231.60298 347.69559,232.37495 C 350.93786,233.14692 363.44379,237.00677 365.14212,238.8595 C 366.84046,240.71223 375.64092,243.49132 377.33926,244.41769 C 379.03759,245.34405 386.7573,253.83573 392.31549,255.22528 C 397.87368,256.61483 413.31309,254.45331 414.85703,253.06376 C 416.40097,251.67421 418.56249,251.21103 418.56249,251.21103 C 418.56249,251.21103 421.95916,265.72408 412.38673,263.87135 C 402.81429,262.01862 400.18959,262.6362 390.61715,257.69559 C 381.04472,252.75497 376.2585,247.35118 370.85471,248.43194 C 365.45091,249.5127 362.67182,253.52694 362.36303,257.2324 C 362.05424,260.93786 362.36303,266.65044 362.36303,266.65044 C 362.36303,266.65044 338.74073,256.76922 335.65284,255.68846 C 332.56496,254.6077 311.25857,248.27754 311.25857,248.27754 C 311.25857,248.27754 305.39159,247.04239 303.07568,244.72648 C 300.75977,242.41057 290.41536,225.736 284.70278,223.1113 C 278.9902,220.4866 257.06623,216.47235 257.06623,216.47235 L 253.20638,207.82628 z "
       id="path2369"
       style="fill:#000000;fill-opacity:1;fill-rule:evenodd;stroke:#000000;stroke-width:0.25pt;stroke-linecap:butt;stroke-linejoin:miter;stroke-opacity:1"
       transform="translate(-1.25,0)" />
    <path
       d="M 275,224.86218 L 350,231.11218"
       id="path2370"
       style="fill:none;fill-opacity:0.75;fill-rule:evenodd;stroke:#000000;stroke-width:3.125;stroke-linecap:butt;stroke-linejoin:miter;stroke-miterlimit:4;stroke-opacity:1"
       transform="translate(-1.25,0)" />
    <path
       d="M 244.17729,561.19288 L 239.9552,657.59717"
       id="path1727"
       style="fill:none;fill-opacity:0.75;fill-rule:evenodd;stroke:#000000;stroke-width:6.25;stroke-linecap:butt;stroke-linejoin:miter;stroke-miterlimit:4;stroke-opacity:1"
       transform="translate(-1.25,0)" />
    <path
       d="M 244.88096 657.2453 A 4.573926 4.573926 0 1 1  235.73311,657.2453 A 4.573926 4.573926 0 1 1  244.88096 657.2453 z"
       id="path1728"
       sodipodi:cx="240.30704"
       sodipodi:cy="657.2453"
       sodipodi:rx="4.573926"
       sodipodi:ry="4.573926"
       sodipodi:type="arc"
       style="color:#000000;fill:#ff0000;fill-opacity:1;fill-rule:nonzero;stroke:#000000;stroke-width:6.25;stroke-linecap:round;stroke-linejoin:miter;marker:none;marker-start:none;marker-mid:none;marker-end:none;stroke-miterlimit:4;stroke-dashoffset:0;stroke-opacity:1;visibility:visible;display:block"
       transform="translate(-2.357596,-1.522939)" />
    <path
       d="M 244.88096 657.2453 A 4.573926 4.573926 0 1 1  235.73311,657.2453 A 4.573926 4.573926 0 1 1  244.88096 657.2453 z"
       id="path1729"
       sodipodi:cx="240.30704"
       sodipodi:cy="657.2453"
       sodipodi:rx="4.573926"
       sodipodi:ry="4.573926"
       sodipodi:type="arc"
       style="color:#000000;fill:none;fill-opacity:1;fill-rule:nonzero;stroke:#000000;stroke-width:6.25;stroke-linecap:round;stroke-linejoin:miter;marker:none;marker-start:none;marker-mid:none;marker-end:none;stroke-miterlimit:4;stroke-dashoffset:0;stroke-opacity:1;visibility:visible;display:block"
       transform="translate(-2.282647,-19.15557)" />
    <path
       d="M 227.74921,641.85981 C 227.74921,642.82895 227.61076,663.73481 227.61076,663.73481 L 251.42405,652.93576 L 250.59335,631.61456 L 227.74921,641.85981 z "
       id="path2371"
       style="fill:none;fill-opacity:0.75;fill-rule:evenodd;stroke:#000000;stroke-width:6.25;stroke-linecap:butt;stroke-linejoin:round;stroke-miterlimit:4;stroke-opacity:1"
       transform="translate(-1.25,0)" />
    <path
       d="M 228.44146,651.41282 C 229.27215,651.41282 251.14715,642.55206 251.14715,642.55206"
       id="path2372"
       style="fill:none;fill-opacity:0.75;fill-rule:evenodd;stroke:#000000;stroke-width:6.25;stroke-linecap:round;stroke-linejoin:miter;stroke-miterlimit:4;stroke-opacity:1"
       transform="translate(-1.25,0)" />
  </g>
</svg>
